<svg width="512" height="512" viewBox="0 0 512 512" fill="none" xmlns="http://www.w3.org/2000/svg">
<path fill-rule="evenodd" clip-rule="evenodd" d="M256.177 12.9919C271.295 12.9919 283.578 16.0628 283.578 19.8422C283.578 23.6217 271.295 26.6925 256.177 26.6925C241.059 26.6925 228.776 23.6217 228.776 19.8422C228.776 16.0628 241.059 12.9919 256.177 12.9919Z" fill="#2F3749"/>
<path fill-rule="evenodd" clip-rule="evenodd" d="M26.8107 433.222C26.8107 433.222 61.2983 418.694 80.6681 418.104C100.038 417.513 124.604 415.151 124.604 415.151L166.415 384.443L152.242 189.092C152.242 189.092 99.6836 223.697 80.4319 249.209C61.2983 274.72 19.9604 410.781 26.6926 433.222H26.8107ZM487.906 433.222C487.906 433.222 453.418 418.694 434.049 418.104C414.679 417.513 390.112 415.151 390.112 415.151L348.302 384.443L362.475 189.092C362.475 189.092 415.033 223.697 434.285 249.209C453.418 274.72 494.756 410.781 488.024 433.222H487.906Z" fill="#111111"/>
<path fill-rule="evenodd" clip-rule="evenodd" d="M387.75 243.894C387.75 243.894 409.482 276.492 411.135 302.358C412.789 328.223 386.096 414.206 386.096 414.206L352.672 458.497H165.706C165.706 458.497 131.691 422.356 122.36 408.419C113.03 394.482 104.88 292.436 104.88 292.436C104.88 292.436 125.431 219.445 148.58 217.201C171.73 214.839 369.443 189.8 387.868 244.012L387.75 243.894Z" fill="#111111"/>
<path fill-rule="evenodd" clip-rule="evenodd" d="M359.286 248.264C359.286 248.264 389.285 255.941 384.797 295.507C380.191 335.074 346.412 454.836 346.412 454.836C346.412 454.836 274.248 455.308 254.169 455.308H169.486L141.612 353.026L131.1 293.736C131.1 293.736 138.895 250.744 166.179 243.658C193.462 236.571 359.404 248.264 359.404 248.264H359.286Z" fill="#2B2B2B"/>
<path fill-rule="evenodd" clip-rule="evenodd" d="M435.938 235.154C435.938 235.154 439.245 169.013 428.379 131.455C417.513 93.8962 390.821 44.645 345.703 33.779C300.586 22.9131 249.681 23.7398 234.681 23.7398C219.682 23.7398 153.423 27.5193 118.581 79.487C83.6208 131.455 85.2743 226.296 85.2743 226.296C85.2743 226.296 244.248 288.303 435.938 235.036V235.154Z" fill="url(#paint0_linear_22_2)"/>
<path fill-rule="evenodd" clip-rule="evenodd" d="M436.056 225.115C436.056 225.115 439.009 165.942 429.324 132.281C419.639 98.6206 395.663 54.5661 355.388 44.8812C315.113 35.1963 269.523 35.905 256.059 35.905C242.595 35.905 183.304 39.3301 152.124 85.7467C120.943 132.163 122.242 217.083 122.242 217.083C122.242 217.083 264.445 272.476 436.056 224.997V225.115Z" fill="url(#paint1_linear_22_2)"/>
<path fill-rule="evenodd" clip-rule="evenodd" d="M213.068 256.177C189.564 255.114 168.186 253.579 168.186 253.579C168.186 253.579 139.958 257.122 134.762 285.232C129.447 313.46 158.501 324.916 181.415 325.743C204.328 326.57 224.524 323.145 234.209 316.885C253.815 304.484 245.075 257.594 213.068 256.059V256.177Z" fill="#111111"/>
<path fill-rule="evenodd" clip-rule="evenodd" d="M211.768 257.831C189.564 256.886 169.249 255.35 169.249 255.35C169.249 255.35 142.557 258.657 137.478 285.35C132.518 312.042 160.037 322.908 181.769 323.735C203.501 324.562 222.634 321.255 231.847 315.349C250.39 303.539 242.122 259.13 211.768 257.713V257.831Z" fill="url(#paint2_linear_22_2)"/>
<path fill-rule="evenodd" clip-rule="evenodd" d="M305.901 256.177C329.404 255.114 350.782 253.579 350.782 253.579C350.782 253.579 379.01 257.122 384.207 285.232C389.522 313.46 360.467 324.916 337.554 325.743C314.641 326.57 294.444 323.145 284.759 316.885C265.153 304.484 273.893 257.594 305.901 256.059V256.177Z" fill="#111111"/>
<path fill-rule="evenodd" clip-rule="evenodd" d="M307.2 257.831C329.404 256.886 349.719 255.35 349.719 255.35C349.719 255.35 376.412 258.657 381.49 285.35C386.451 312.042 358.931 322.908 337.2 323.735C315.468 324.562 296.334 321.255 287.122 315.349C268.579 303.539 276.846 259.13 307.2 257.713V257.831Z" fill="url(#paint3_linear_22_2)"/>
<path fill-rule="evenodd" clip-rule="evenodd" d="M26.8106 432.395L76.8886 272.122C76.8886 272.122 106.888 234.563 142.793 234.563C178.698 234.563 219.327 254.051 219.327 254.051L260.547 232.083L227.122 226.296C227.122 226.296 168.659 192.044 135.352 197.123C101.928 202.084 77.7153 222.989 59.4085 279.799C41.1017 336.609 16.0627 424.127 16.0627 424.127L26.9287 432.513L26.8106 432.395Z" fill="#AAAAAA"/>
<path fill-rule="evenodd" clip-rule="evenodd" d="M28.5822 435.23L78.6602 274.956C78.6602 274.956 108.66 237.398 144.565 237.398C180.47 237.398 221.099 256.886 221.099 256.886L262.319 234.918L228.894 229.13C228.894 229.13 170.43 194.879 137.124 199.958C103.699 204.918 79.4869 225.823 61.1801 282.633C42.8733 339.444 17.8344 426.962 17.8344 426.962L28.7003 435.348L28.5822 435.23Z" fill="#2B2B2B"/>
<path fill-rule="evenodd" clip-rule="evenodd" d="M489.205 433.812L439.127 273.539C439.127 273.539 409.128 235.981 373.223 235.981C337.318 235.981 296.688 255.469 296.688 255.469L255.469 233.5L288.893 227.713C288.893 227.713 347.357 193.462 380.663 198.54C414.088 203.501 438.3 224.406 456.607 281.216C474.914 338.026 499.953 425.545 499.953 425.545L489.087 433.93L489.205 433.812Z" fill="#AAAAAA"/>
<path fill-rule="evenodd" clip-rule="evenodd" d="M488.496 435.23L438.418 274.956C438.418 274.956 408.419 237.398 372.514 237.398C336.609 237.398 295.98 256.886 295.98 256.886L254.76 234.918L288.185 229.13C288.185 229.13 346.648 194.879 379.955 199.958C413.379 204.918 437.592 225.823 455.899 282.633C474.205 339.444 499.244 426.962 499.244 426.962L488.378 435.348L488.496 435.23Z" fill="#2B2B2B"/>
<path fill-rule="evenodd" clip-rule="evenodd" d="M489.205 433.812C489.205 433.812 452.591 417.75 425.899 417.75C399.206 417.75 389.994 415.269 389.994 415.269C389.994 415.269 410.072 366.018 410.899 337.672C411.726 309.326 408.655 249.091 408.655 249.091C408.655 249.091 430.269 252.752 438.418 275.075C446.568 297.397 489.205 433.93 489.205 433.93V433.812ZM29.2909 433.812C29.2909 433.812 65.9045 417.75 92.597 417.75C119.29 417.75 128.502 415.269 128.502 415.269C128.502 415.269 108.424 366.018 107.597 337.672C106.77 309.326 109.841 249.091 109.841 249.091C109.841 249.091 88.227 252.752 80.0775 275.075C71.928 297.397 29.2909 433.93 29.2909 433.93V433.812Z" fill="#202D3A"/>
<path fill-rule="evenodd" clip-rule="evenodd" d="M340.861 445.623C340.861 445.623 354.916 428.615 364.601 390.821L374.286 353.026C374.286 353.026 357.632 342.16 321.727 342.16C285.822 342.16 266.689 354.68 266.689 354.68C266.689 354.68 320.074 464.048 340.861 445.623Z" fill="#272731"/>
<path d="M340.861 469.009C347.319 469.009 352.554 463.774 352.554 457.316C352.554 450.858 347.319 445.623 340.861 445.623C334.403 445.623 329.168 450.858 329.168 457.316C329.168 463.774 334.403 469.009 340.861 469.009Z" fill="#5E5E5E"/>
<path d="M174.092 469.009C180.549 469.009 185.785 463.774 185.785 457.316C185.785 450.858 180.549 445.623 174.092 445.623C167.634 445.623 162.399 450.858 162.399 457.316C162.399 463.774 167.634 469.009 174.092 469.009Z" fill="#5E5E5E"/>
<path fill-rule="evenodd" clip-rule="evenodd" d="M250.036 379.482H263.5V446.568H250.036V379.482ZM272.594 445.741H285.94V402.986L272.594 388.695V445.741ZM296.452 446.332H309.916V428.97L296.452 414.797V446.332ZM240.941 445.741H227.477V402.986L240.941 388.695V445.741Z" fill="#48556F"/>
<path fill-rule="evenodd" clip-rule="evenodd" d="M285.94 446.332H272.594V428.97L285.94 414.797V446.332ZM217.91 446.332H204.446V428.97L217.91 414.797V446.332Z" fill="#48556F"/>
<path fill-rule="evenodd" clip-rule="evenodd" d="M243.54 307.909H270.823V360.703H243.54V307.909Z" fill="#272731"/>
<path fill-rule="evenodd" clip-rule="evenodd" d="M250.036 286.177H264.209C266.098 286.177 267.516 287.712 267.516 289.484C267.516 291.373 265.98 292.791 264.209 292.791H250.036C248.146 292.791 246.729 291.255 246.729 289.484C246.729 287.594 248.264 286.177 250.036 286.177ZM250.036 274.838H264.209C266.098 274.838 267.516 276.374 267.516 278.145C267.516 280.035 265.98 281.452 264.209 281.452H250.036C248.146 281.452 246.729 279.917 246.729 278.145C246.729 276.256 248.264 274.838 250.036 274.838ZM250.036 263.5H264.209C266.098 263.5 267.516 265.035 267.516 266.807C267.516 268.697 265.98 270.114 264.209 270.114H250.036C248.146 270.114 246.729 268.579 246.729 266.807C246.729 264.917 248.264 263.5 250.036 263.5Z" fill="#777777"/>
<path fill-rule="evenodd" clip-rule="evenodd" d="M228.894 18.8973V239.051L256.059 252.043L283.578 237.044V18.8973H228.894Z" fill="#2F3749"/>
<path fill-rule="evenodd" clip-rule="evenodd" d="M256.059 252.043L256.177 12.9919L244.366 13.7006L235.272 15.4722L230.784 18.8974V237.044L256.059 252.043Z" fill="url(#paint4_linear_22_2)"/>
<path fill-rule="evenodd" clip-rule="evenodd" d="M310.035 266.098C329.522 265.272 347.239 263.854 347.239 263.854C347.239 263.854 370.624 266.807 374.994 290.192C379.364 313.578 355.27 323.027 336.255 323.735C317.239 324.444 300.468 321.491 292.436 316.412C276.256 306.137 283.46 267.161 309.916 265.98L310.035 266.098ZM169.604 266.098C189.092 265.272 206.808 263.854 206.808 263.854C206.808 263.854 230.193 266.807 234.563 290.192C238.933 313.578 214.839 323.027 195.824 323.735C176.808 324.444 160.037 321.491 152.005 316.412C135.825 306.137 143.029 267.161 169.486 265.98L169.604 266.098Z" fill="url(#paint5_linear_22_2)"/>
<path fill-rule="evenodd" clip-rule="evenodd" d="M166.769 437.71C166.769 437.71 155.903 420.466 151.415 384.797L146.927 349.01C146.927 349.01 163.462 340.979 196.296 345.231C229.13 349.483 245.311 363.183 245.311 363.183C245.311 363.183 183.659 457.08 166.769 437.828V437.71Z" fill="url(#paint6_linear_22_2)"/>
<path fill-rule="evenodd" clip-rule="evenodd" d="M349.719 437.71C349.719 437.71 360.585 420.466 365.073 384.797L369.561 349.01C369.561 349.01 353.026 340.979 320.192 345.231C287.358 349.483 271.177 363.183 271.177 363.183C271.177 363.183 332.83 457.08 349.719 437.828V437.71Z" fill="url(#paint7_linear_22_2)"/>
<path fill-rule="evenodd" clip-rule="evenodd" d="M280.153 383.026V352.79C280.153 352.79 276.256 337.2 257.713 337.2C239.17 337.2 234.327 352.79 234.327 352.79V382.081L280.153 383.026Z" fill="#111111"/>
<path fill-rule="evenodd" clip-rule="evenodd" d="M273.067 376.057V355.034C273.067 355.034 270.35 344.168 257.476 344.168C244.603 344.168 241.177 355.034 241.177 355.034V375.349L273.067 376.057Z" fill="#111111"/>
<path fill-rule="evenodd" clip-rule="evenodd" d="M276.728 379.719V353.853C276.728 353.853 273.421 340.507 257.476 340.507C241.65 340.507 237.398 353.853 237.398 353.853V378.892L276.61 379.719H276.728Z" fill="#5E5E5E"/>
<path fill-rule="evenodd" clip-rule="evenodd" d="M270.823 373.695V355.743C270.823 355.743 268.46 346.53 257.476 346.53C246.492 346.53 243.54 355.743 243.54 355.743V373.105L270.704 373.695H270.823Z" fill="#444444"/>
<path fill-rule="evenodd" clip-rule="evenodd" d="M488.378 431.096C488.378 431.096 446.214 257.595 424.482 238.225C402.868 218.855 399.443 206.099 360.939 209.17C322.436 212.241 288.185 229.13 288.185 229.13C288.185 229.13 334.365 202.32 361.648 199.013C388.931 195.706 426.726 204.21 443.497 248.5C460.387 292.909 499.953 425.427 499.953 425.427L488.26 430.978L488.378 431.096Z" fill="url(#paint8_linear_22_2)"/>
<path fill-rule="evenodd" clip-rule="evenodd" d="M27.6374 431.096C27.6374 431.096 69.8021 257.595 91.534 238.225C113.148 218.855 116.573 206.099 155.076 209.17C193.58 212.241 227.831 229.13 227.831 229.13C227.831 229.13 181.651 202.32 154.368 199.013C127.085 195.706 89.29 204.21 72.5186 248.5C55.6291 292.909 16.0627 425.427 16.0627 425.427L27.7555 430.978L27.6374 431.096Z" fill="url(#paint9_linear_22_2)"/>
<path fill-rule="evenodd" clip-rule="evenodd" d="M174.21 450.111C178.462 450.111 181.887 453.536 181.887 457.788C181.887 462.04 178.462 465.465 174.21 465.465C169.958 465.465 166.533 462.04 166.533 457.788C166.533 453.536 169.958 450.111 174.21 450.111ZM340.861 450.111C345.113 450.111 348.538 453.536 348.538 457.788C348.538 462.04 345.113 465.465 340.861 465.465C336.609 465.465 333.184 462.04 333.184 457.788C333.184 453.536 336.609 450.111 340.861 450.111Z" fill="#444444"/>
<defs>
<linearGradient id="paint0_linear_22_2" x1="83.7106" y1="155.635" x2="439.248" y2="155.635" gradientUnits="userSpaceOnUse">
<stop stop-color="#444444"/>
<stop offset="1" stop-color="#2B2B2B"/>
</linearGradient>
<linearGradient id="paint1_linear_22_2" x1="120.836" y1="154.013" x2="438.951" y2="154.013" gradientUnits="userSpaceOnUse">
<stop stop-color="#5E5E5E"/>
<stop offset="1" stop-color="#2B2B2B"/>
</linearGradient>
<linearGradient id="paint2_linear_22_2" x1="187.221" y1="326.101" x2="195.71" y2="253.939" gradientUnits="userSpaceOnUse">
<stop stop-color="#111111"/>
<stop offset="1" stop-color="#114444"/>
</linearGradient>
<linearGradient id="paint3_linear_22_2" x1="187.221" y1="326.101" x2="195.71" y2="253.939" gradientUnits="userSpaceOnUse">
<stop stop-color="#111111"/>
<stop offset="1" stop-color="#114444"/>
</linearGradient>
<linearGradient id="paint4_linear_22_2" x1="230.754" y1="132.5" x2="256.203" y2="132.5" gradientUnits="userSpaceOnUse">
<stop stop-color="#2F3749"/>
<stop offset="1" stop-color="#4D6291"/>
</linearGradient>
<linearGradient id="paint5_linear_22_2" x1="324.112" y1="325.83" x2="331.539" y2="262.696" gradientUnits="userSpaceOnUse">
<stop stop-color="#222222"/>
<stop offset="1" stop-color="#225555"/>
</linearGradient>
<linearGradient id="paint6_linear_22_2" x1="83.7105" y1="155.635" x2="439.248" y2="155.635" gradientUnits="userSpaceOnUse">
<stop stop-color="#444444"/>
<stop offset="1" stop-color="#2B2B2B"/>
</linearGradient>
<linearGradient id="paint7_linear_22_2" x1="83.7106" y1="155.635" x2="439.248" y2="155.635" gradientUnits="userSpaceOnUse">
<stop stop-color="#444444"/>
<stop offset="1" stop-color="#2B2B2B"/>
</linearGradient>
<linearGradient id="paint8_linear_22_2" x1="332.683" y1="190.483" x2="455.556" y2="436.228" gradientUnits="userSpaceOnUse">
<stop stop-color="#AAAAAA"/>
<stop offset="1" stop-color="#444444"/>
</linearGradient>
<linearGradient id="paint9_linear_22_2" x1="332.683" y1="190.483" x2="455.556" y2="436.228" gradientUnits="userSpaceOnUse">
<stop stop-color="#AAAAAA"/>
<stop offset="1" stop-color="#444444"/>
</linearGradient>
</defs>
</svg>
